<?xml version="1.0" encoding="utf-8"?>
<!-- Generator: Adobe Illustrator 25.4.1, SVG Export Plug-In . SVG Version: 6.00 Build 0)  -->
<svg version="1.1" id="Layer_1" xmlns="http://www.w3.org/2000/svg" xmlns:xlink="http://www.w3.org/1999/xlink" x="0px" y="0px"
	 viewBox="0 0 80 80" style="enable-background:new 0 0 80 80;" xml:space="preserve">
<style type="text/css">
	.st0{fill:#20968E;}
</style>
<path class="st0" d="M40.2,22.3c-10.5,0-20.9,5.7-30.9,16.6c0,0,0,0,0,0c-0.1,0.1-0.1,0.1-0.1,0.2c-0.1,0.1-0.1,0.1-0.2,0.2
	c0,0,0,0,0,0c0,0,0,0.1,0,0.1c0,0,0,0,0,0c0,0,0,0.1,0,0.1c0,0,0,0.1,0,0.1c0,0,0,0,0,0c0,0,0,0,0,0c0,0,0,0.1,0,0.1c0,0,0,0,0,0
	c0,0,0,0.1,0,0.1c0,0,0,0,0,0c0,0.1,0,0.2,0,0.3c0,0,0,0,0,0c0,0,0,0.1,0,0.1c0,0,0,0,0,0c0,0,0,0.1,0,0.1c0,0,0,0,0,0
	c0.1,0.2,0.2,0.3,0.3,0.4c0.1,0.1,0.1,0.2,0.2,0.2c10,10.9,20.4,16.5,30.9,16.6c10.5,0,20.7-5.6,30.3-16.6c0,0,0,0,0.1-0.1
	c0,0,0,0,0,0c0,0,0.1-0.1,0.1-0.1c0,0,0.1,0,0.1-0.1c0,0,0,0,0,0c0,0,0-0.1,0.1-0.1c0,0,0,0,0,0c0,0,0-0.1,0.1-0.1v0
	c0,0,0-0.1,0.1-0.1c0,0,0,0,0,0c0,0,0-0.1,0-0.1c0,0,0,0,0,0c0,0,0-0.1,0-0.1c0,0,0,0,0,0c0,0,0-0.1,0-0.1c0,0,0,0,0,0
	c0,0,0-0.1,0-0.1c0,0,0,0,0,0c0-0.1,0-0.2,0-0.3c0,0,0,0,0,0c0,0,0-0.1,0-0.1v0c0-0.1-0.1-0.2-0.1-0.2c0,0,0,0,0,0
	c0,0,0-0.1-0.1-0.1c0,0,0,0,0,0c-0.1-0.1-0.2-0.2-0.3-0.3C60.9,27.9,50.7,22.3,40.2,22.3z M40.2,25.1c9.2,0,18.5,4.8,27.6,14.9
	C58.7,50,49.5,54.9,40.2,54.9c-9.2,0-18.6-4.9-28-14.9C21.6,30,31,25.1,40.2,25.1z"/>
<path class="st0" d="M40,28.1c-6.6,0-11.9,5.4-11.9,11.9c0,6.6,5.4,11.9,11.9,11.9c6.6,0,11.9-5.3,11.9-11.9
	C51.9,33.4,46.6,28.1,40,28.1z M40,30.9c5,0,9.1,4.1,9.1,9.1c0,5.1-4.1,9.1-9.1,9.1c-5,0-9.1-4.1-9.1-9.1C30.9,35,35,30.9,40,30.9z"
	/>
<path class="st0" d="M40,33.8c-3.4,0-6.2,2.8-6.2,6.2c0,3.4,2.8,6.2,6.2,6.2c3.4,0,6.2-2.8,6.2-6.2C46.2,36.6,43.4,33.8,40,33.8z
	 M40,36.6c1.9,0,3.4,1.5,3.4,3.4c0,1.9-1.5,3.4-3.4,3.4c-1.9,0-3.4-1.5-3.4-3.4C36.6,38.1,38.1,36.6,40,36.6z"/>
</svg>
